<svg width="1383" height="478" viewBox="0 0 1383 478" fill="none" xmlns="http://www.w3.org/2000/svg">
<path d="M423.585 123.962C431.263 115.262 439.349 107.154 447.833 99.632C456.317 92.113 465.116 85.59 474.223 80.06C483.333 74.534 492.711 70.185 502.356 67.011C512.001 63.842 521.913 62.253 532.096 62.253C538.702 62.253 545.044 62.891 551.119 64.156H550.849C563.349 69.233 576.034 73.717 588.893 77.612C601.753 81.513 615.152 83.458 629.085 83.458C641.047 83.458 652.299 82.056 662.841 79.243C673.376 76.436 683.336 72.541 692.714 67.554C702.092 62.571 711.11 56.726 719.774 50.02C728.434 43.317 736.962 35.977 745.362 28L743.755 25.825C735.717 32.17 727.583 38.014 719.371 43.359C711.155 48.707 702.626 53.282 693.787 57.088C684.945 60.894 675.702 63.84 666.057 65.921C656.413 68.006 646.137 69.048 635.243 69.048C625.239 69.048 615.686 67.96 606.576 65.785C597.469 63.61 587.557 60.532 576.839 56.542C570.41 54.189 564.02 51.833 557.681 49.476C551.339 47.122 545.133 44.765 539.061 42.408C524.593 36.971 510.126 31.717 495.659 26.642C481.192 21.57 466.321 17.036 451.048 13.048C435.779 9.06397 419.879 5.892 403.357 3.534C386.835 1.181 369.285 0 350.713 0C331.957 0 313.513 1.81301 295.384 5.43701C277.255 9.06501 260.155 14.727 244.08 22.427C228.005 30.132 213.353 40.009 200.139 52.059C186.92 64.113 175.935 78.475 167.183 95.146C152.002 96.599 136.817 100.221 121.639 106.021C104.847 113.087 89.039 122.559 74.2156 134.428C59.3892 146.299 46.4859 159.802 35.5007 174.932C24.5154 190.066 15.8519 206.377 9.51389 223.864C3.17195 241.355 0 259.159 0 277.281C0 298.304 3.66207 316.562 10.9852 332.057C18.3083 347.552 28.1765 360.371 40.5898 370.525C53.003 380.67 67.3835 388.191 83.7285 393.088C100.07 397.981 117.259 400.428 135.299 400.428C160.485 400.428 182.631 397.482 201.745 391.592C220.856 385.703 238.004 377.135 253.185 365.901C268.367 354.667 282.076 340.942 294.314 324.718C306.543 308.502 318.467 290.15 330.082 269.67V269.941L338.92 253.903C344.281 244.301 350.082 234.015 356.336 223.048C362.587 212.087 369.239 200.895 376.296 189.477C383.351 178.06 390.852 166.779 398.801 155.632C406.748 144.487 415.013 133.931 423.585 123.962ZM354.33 192.602C341.375 210.456 329.277 227.628 318.024 244.116C314.274 249.738 310.341 255.448 306.236 261.244C302.124 267.048 298.063 272.706 294.047 278.234C290.026 283.762 286.141 289.015 282.391 294.001C278.638 298.986 275.156 303.38 271.94 307.186C262.651 318.06 252.519 328.663 241.534 338.99C230.549 349.321 218.845 358.517 206.437 366.583C194.019 374.648 180.936 381.125 167.182 386.021C153.429 390.913 139.229 393.361 124.586 393.361C109.579 393.361 95.38 390.779 81.9855 385.616C68.5872 380.448 56.7999 373.015 46.6207 363.324C36.4376 353.626 28.3999 341.844 22.5087 327.982C16.6136 314.121 13.6661 298.488 13.6661 281.088C13.6661 262.972 16.7455 245.612 22.9083 229.031C29.0711 212.448 37.3322 197.089 47.6915 182.952C58.0498 168.817 70.0171 156.312 83.5946 145.437C97.1652 134.565 111.456 125.776 126.463 119.068C132.713 116.533 138.604 114.447 144.145 112.817C149.677 111.185 155.13 109.828 160.487 108.739C157.448 116.351 154.995 124.463 153.12 133.07C151.245 141.678 150.308 150.153 150.308 158.486C150.308 173.71 152.853 187.396 157.942 199.535C163.032 211.68 170.04 221.92 178.976 230.253C187.903 238.592 198.353 244.98 210.32 249.418C222.287 253.86 235.147 256.081 248.904 256.081C257.296 256.081 265.286 254.856 272.88 252.409C280.471 249.961 287.483 246.564 293.914 242.216C300.344 237.865 306.239 232.701 311.596 226.721C316.957 220.739 321.596 214.126 325.529 206.876L323.387 205.788C314.632 217.933 304.405 227.583 292.709 234.741C281.005 241.901 267.926 245.48 253.459 245.48C240.236 245.48 228.274 243.35 217.556 239.09C206.838 234.834 197.684 228.854 190.093 221.147C182.498 213.446 176.65 204.252 172.546 193.556C168.433 182.864 166.383 170.993 166.383 157.944C166.383 148.158 167.456 139.051 169.598 130.625C171.74 122.197 174.688 113.906 178.441 105.75C180.938 105.389 183.571 105.207 186.343 105.207H194.515C213.626 105.207 232.11 107.428 249.972 111.868C267.833 116.31 285.428 122.155 302.756 129.402L303.825 126.956C283.821 116.625 264.348 108.606 245.421 102.897C226.486 97.188 207.196 94.333 187.548 94.333H184.066C192.638 78.932 203.264 65.701 215.949 54.645C228.629 43.592 242.562 34.44 257.744 27.19C272.926 19.943 289.092 14.595 306.239 11.15C323.387 7.71102 340.707 5.98602 358.214 5.98602C372.681 5.98602 386.571 7.20799 399.877 9.65399C413.18 12.102 426.223 15.274 438.996 19.168C451.764 23.069 464.357 27.597 476.77 32.762C489.183 37.926 501.727 43.227 514.412 48.664L531.827 56.275H531.026C518.7 56.275 506.598 58.496 494.723 62.936C482.84 67.378 471.233 73.448 459.893 81.148C448.548 88.853 437.427 97.867 426.533 108.198C415.636 118.527 405.01 129.673 394.65 141.633C380.721 157.765 367.278 174.755 354.33 192.602ZM592.638 159.574C588.885 159.574 585.714 160.755 583.125 163.108C580.536 165.465 579.24 168.456 579.24 172.079C579.24 175.705 580.536 178.738 583.125 181.184C585.714 183.632 588.885 184.854 592.638 184.854C596.388 184.854 599.559 183.632 602.148 181.184C604.736 178.738 606.034 175.705 606.034 172.079C606.034 168.456 604.737 165.465 602.148 163.108C599.559 160.755 596.388 159.574 592.638 159.574ZM1380.32 106.701C1378.53 104.437 1376.3 102.717 1373.62 101.535C1370.94 100.36 1368.04 99.543 1364.92 99.089C1361.79 98.639 1358.89 98.41 1356.21 98.41C1345.85 98.41 1335.04 101.31 1323.79 107.108C1312.53 112.91 1300.92 121.245 1288.96 132.117C1276.99 142.992 1264.66 156.133 1251.98 171.534C1239.3 186.939 1226.35 204.25 1213.14 223.457C1207.42 228.171 1200.99 234.832 1193.85 243.436C1186.7 252.046 1179.38 260.971 1171.88 270.216L1162.1 282.611L1161.96 282.449C1158.57 286.794 1154.73 291.738 1150.44 297.262C1146.16 302.794 1141.51 308.274 1136.51 313.709C1132.76 317.88 1128.83 321.956 1124.72 325.94C1120.61 329.928 1116.59 333.419 1112.67 336.405C1108.73 339.396 1104.85 341.8 1101.01 343.608C1097.17 345.423 1093.64 346.331 1090.43 346.331C1088.64 346.331 1087.75 345.152 1087.75 342.797C1087.75 339.174 1089.9 333.872 1094.21 326.894C1098.51 319.918 1103.45 312.173 1109.02 303.65C1113.86 296.403 1118.43 289.379 1122.74 282.582C1127.05 275.785 1130.81 269.309 1134.05 263.148C1137.28 256.988 1139.88 251.322 1141.85 246.158C1143.83 240.99 1144.82 236.327 1144.82 232.155C1144.82 227.628 1143.34 224.047 1140.4 221.419C1137.45 218.792 1133.92 217.477 1129.81 217.477C1125.53 217.477 1121.06 218.474 1116.42 220.466C1111.77 222.463 1107.21 224.862 1102.76 227.671C1098.29 230.482 1094.05 233.515 1090.03 236.778C1086 240.041 1082.57 243.03 1079.71 245.75C1074.71 250.281 1069.57 255.4 1064.31 261.106C1059.04 266.817 1053.99 272.573 1049.17 278.372C1051.85 273.841 1054.53 269.128 1057.21 264.235C1059.89 259.339 1062.34 254.581 1064.57 249.961C1066.8 245.341 1068.59 241.085 1069.93 237.186C1071.27 233.291 1071.94 230.075 1071.94 227.536C1071.94 223.009 1070.74 219.428 1068.32 216.797C1065.91 214.173 1062.56 212.856 1058.28 212.856C1055.77 212.856 1053.14 213.766 1050.37 215.576C1047.6 217.389 1044.7 219.836 1041.67 222.916C1038.63 225.999 1035.46 229.622 1032.16 233.788C1028.85 237.961 1025.41 242.398 1021.84 247.108L1005.77 267.77C1003.8 270.486 1001.65 273.388 999.337 276.468C997.012 279.552 994.782 282.45 992.636 285.165L992.643 285.174C989.159 289.596 985.503 294.163 981.654 298.898C977.007 304.604 972.635 309.816 968.527 314.526C964.598 318.875 960.626 322.908 956.604 326.621C952.588 330.342 948.611 333.6 944.682 336.408C940.754 339.221 936.999 341.438 933.429 343.067C929.855 344.701 926.553 345.515 923.517 345.515C921.551 345.515 920.57 344.701 920.57 343.067C920.57 341.259 921.241 338.767 922.58 335.593C923.92 332.424 925.747 328.796 928.073 324.719C930.39 320.642 933.07 316.203 936.11 311.397C939.145 306.598 942.361 301.662 945.755 296.584C950.398 289.341 954.774 282.406 958.883 275.787C962.992 269.173 966.605 262.924 969.732 257.03C972.856 251.145 975.312 245.706 977.104 240.72C978.887 235.737 979.779 231.342 979.779 227.536C979.779 222.825 978.347 219.203 975.495 216.661C972.635 214.126 969.154 212.855 965.045 212.855C960.758 212.855 956.289 213.808 951.646 215.71C947.004 217.613 942.404 220.017 937.848 222.914C933.298 225.814 929.011 228.852 924.989 232.019C920.973 235.192 917.53 238.137 914.675 240.854C909.318 245.749 904.048 250.823 898.867 256.08C893.684 261.337 888.863 266.407 884.4 271.303C889.581 261.516 893.821 252.862 897.128 245.34C900.43 237.821 902.082 231.884 902.082 227.535C902.082 223.008 900.877 219.427 898.468 216.796C896.055 214.172 892.345 212.855 887.347 212.855C883.953 212.855 880.024 213.901 875.56 215.982C871.093 218.067 866.585 220.603 862.03 223.593C857.474 226.582 853.187 229.667 849.17 232.836C845.149 236.007 841.891 238.681 839.39 240.855C833.853 245.75 828.449 250.913 823.179 256.348C817.91 261.787 813.039 266.951 808.58 271.846C813.757 262.059 818.089 253.272 821.572 245.478C825.058 237.686 826.797 231.706 826.797 227.535C826.797 223.008 825.68 219.427 823.45 216.796C821.213 214.172 817.774 212.855 813.136 212.855C810.632 212.855 807.911 213.854 804.963 215.846C802.015 217.842 798.888 220.602 795.585 224.137C792.279 227.671 788.797 231.749 785.135 236.371C781.473 240.991 777.676 245.843 773.751 250.913L748.146 284.656C744.061 289.758 739.927 294.944 735.71 300.251C730.887 306.33 726.151 311.81 721.509 316.698C713.648 325.039 706.009 331.921 698.601 337.36C691.186 342.798 684.621 345.514 678.909 345.514C674.976 345.514 673.014 343.978 673.014 340.894C673.014 338.9 673.591 336.5 674.756 333.688C675.914 330.883 677.302 327.981 678.909 324.99C680.516 321.999 682.26 319.105 684.135 316.292C686.009 313.483 687.657 310.991 689.089 308.819C695.16 299.756 701.681 290.329 708.65 280.545C715.615 270.761 722.4 261.427 729.009 252.547L758.751 212.856H724.454C722.312 215.94 719.5 220.107 716.018 225.362C712.536 230.621 708.826 236.329 704.897 242.488C700.789 248.835 696.501 255.628 692.037 262.875C687.57 270.126 683.286 277.283 679.178 284.352C673.457 291.963 667.659 299.486 661.763 306.915C655.867 314.348 650.064 320.873 644.348 326.486C638.452 332.287 632.601 337.045 626.8 340.757C620.993 344.478 615.5 346.333 610.323 346.333C607.642 346.333 606.302 345.243 606.302 343.066C606.302 341.077 606.972 338.495 608.313 335.321C609.652 332.151 611.392 328.618 613.539 324.718C615.68 320.822 618.225 316.608 621.173 312.076C624.12 307.549 627.2 302.836 630.415 297.939L635.509 290.328C639.259 284.532 642.916 278.687 646.49 272.795C650.065 266.91 653.279 261.243 656.14 255.805C658.991 250.369 661.318 245.201 663.104 240.312C664.887 235.418 665.785 231.163 665.785 227.535C665.785 223.008 664.485 219.427 661.9 216.796C659.307 214.172 655.87 212.855 651.585 212.855C649.26 212.855 646.803 213.718 644.218 215.437C641.626 217.162 639.032 219.291 636.448 221.827C633.855 224.366 631.358 227.128 628.945 230.117C626.532 233.108 624.346 235.872 622.379 238.41C621.665 239.317 620.907 240.27 620.102 241.263C619.301 242.263 618.538 243.213 617.828 244.117L601.482 265.322C599.161 268.407 596.704 271.711 594.115 275.244C592.223 277.828 590.352 280.287 588.507 282.629L588.355 282.451C584.781 287.164 581.028 291.83 577.102 296.45C573.173 301.07 569.419 305.375 565.849 309.363C561.202 314.437 556.515 319.195 551.785 323.634C547.05 328.075 542.407 331.922 537.852 335.189C533.297 338.448 528.965 340.989 524.856 342.8C520.747 344.612 516.994 345.516 513.603 345.516C510.388 345.516 508.246 345.066 507.173 344.159C506.1 343.255 505.565 341.982 505.565 340.352C505.565 338.359 506.147 335.959 507.312 333.147C508.477 330.342 509.865 327.489 511.476 324.586C513.088 321.688 514.791 318.83 516.582 316.022C518.376 313.213 519.988 310.814 521.424 308.821C527.695 299.575 534.101 290.38 540.638 281.227C547.176 272.076 553.849 262.875 560.662 253.634C563.705 249.468 566.84 245.342 570.067 241.264C573.29 237.187 576.425 233.067 579.473 228.897L591.567 212.857H557.275C554.594 215.577 550.933 219.565 546.29 224.817C541.643 230.076 536.55 236.009 531.017 242.624C525.481 249.24 519.717 256.26 513.737 263.693C508.523 270.167 503.491 276.419 498.619 282.474L498.6 282.451C493.598 288.794 488.644 294.954 483.73 300.932C478.816 306.914 473.953 312.532 469.131 317.788C461.804 325.399 454.435 332.059 447.025 337.766C439.614 343.476 433.048 346.333 427.332 346.333C424.831 346.333 423.582 345.064 423.582 342.523C423.757 338.357 426.529 331.787 431.886 322.817C437.247 313.844 444.12 302.929 452.516 290.061C454.838 286.438 457.339 282.405 460.019 277.962C462.7 273.524 465.197 268.948 467.523 264.234C469.84 259.525 471.714 254.766 473.146 249.96C474.574 245.161 475.293 240.494 475.293 235.961C475.293 226.357 471.36 218.113 463.502 211.224C462.43 210.137 461.36 208.599 460.287 206.603C459.213 204.611 458.232 202.437 457.34 200.078C456.446 197.725 455.688 195.233 455.062 192.602C454.435 189.978 454.124 187.485 454.124 185.126V181.594C447.87 182.502 443.411 184.54 440.73 187.71C438.049 190.881 436.71 194.19 436.71 197.632C436.71 200.351 437.423 202.933 438.855 205.379C440.283 207.825 442.426 209.685 445.286 210.952L388.75 285.165L392.233 289.243C395.269 285.44 398.751 280.95 402.684 275.786C406.609 270.623 410.989 264.778 415.811 258.253L450.641 212.041C453.857 212.767 456.712 214.309 459.212 216.661C461.714 219.018 462.966 221.466 462.966 224.001C462.966 226.54 462.296 229.302 460.955 232.292C459.615 235.283 457.916 238.457 455.865 241.806C453.811 245.162 451.534 248.559 449.033 252.004C446.529 255.448 444.031 258.707 441.53 261.788C440.098 263.603 438.582 265.504 436.979 267.494C435.367 269.492 434.031 271.304 432.958 272.933L424.92 283.536C422.06 287.163 419.16 290.97 416.212 294.953C413.265 298.941 410.541 303.063 408.039 307.319C405.538 311.583 403.484 315.887 401.876 320.231C400.269 324.585 399.467 328.844 399.467 333.01C399.467 336.817 400.312 339.942 402.011 342.389C403.707 344.833 405.848 346.739 408.442 348.1C411.03 349.454 413.887 350.411 417.014 350.954C420.136 351.497 423.22 351.768 426.26 351.768C433.224 351.768 440.635 348.959 448.498 343.342C456.355 337.724 464.393 330.563 472.61 321.864C477.253 316.794 482.076 311.217 487.077 305.145C491.358 299.945 495.641 294.628 499.925 289.228L499.937 289.242L515.745 269.398C519.494 264.688 523.288 259.93 527.128 255.123C530.97 250.324 534.763 245.66 538.516 241.127C533.515 248.736 529.274 255.358 525.788 260.972C522.305 266.594 519.266 271.619 516.682 276.062C514.089 280.504 511.763 284.533 509.713 288.156C507.659 291.784 505.648 295.497 503.686 299.302C500.647 304.92 497.839 310.95 495.246 317.379C492.661 323.816 491.36 329.659 491.36 334.912C491.36 339.63 492.808 343.52 495.696 346.6C498.596 349.689 504.2 351.221 512.525 351.221C516.454 351.221 520.742 350.224 525.385 348.234C530.029 346.244 534.807 343.569 539.722 340.213C544.632 336.864 549.633 332.832 554.727 328.118C559.817 323.408 564.859 318.33 569.865 312.894C573.435 308.907 577.097 304.602 580.846 299.982C583.889 296.235 586.854 292.601 589.778 289.033L589.956 289.242C595.313 282.174 600.806 274.971 606.434 267.631C612.058 260.291 617.192 253.632 621.839 247.65C628.445 238.953 634.252 231.884 639.255 226.447C644.252 221.01 648.098 218.293 650.774 218.293C651.667 218.293 652.114 219.019 652.114 220.467C652.114 222.099 651.265 224.409 649.569 227.4C647.869 230.389 645.728 233.745 643.139 237.457C640.546 241.174 637.599 245.162 634.297 249.418C630.99 253.682 627.735 257.804 624.52 261.788L612.462 277.011C608.533 282.272 604.735 287.435 601.078 292.505C597.412 297.584 594.198 302.566 591.43 307.457C588.661 312.353 586.431 317.019 584.732 321.456C583.037 325.898 582.187 329.931 582.187 333.554C582.187 338.99 584.289 343.387 588.486 346.74C592.678 350.092 599.957 351.769 610.321 351.769C616.212 351.769 622.331 349.73 628.673 345.653C635.011 341.576 641.13 336.728 647.026 331.111C649.882 328.209 652.921 324.991 656.136 321.457C659.351 317.923 662.474 314.255 665.509 310.449C663.543 314.619 661.935 318.786 660.687 322.953C659.438 327.123 658.812 331.022 658.812 334.645C658.812 339.533 660.153 343.521 662.832 346.601C665.509 349.69 670.419 351.222 677.567 351.222C680.958 351.222 684.575 350.411 688.417 348.778C692.258 347.144 696.23 344.972 700.339 342.257C704.448 339.533 708.553 336.319 712.663 332.603C716.772 328.891 720.877 324.952 724.989 320.777C728.559 316.975 732.355 312.622 736.377 307.73C740.393 302.838 744.187 298.217 747.761 293.865L753.389 286.529L753.328 286.459L777.497 254.178C781.426 249.104 785.088 244.394 788.482 240.043C791.873 235.692 795.048 231.887 797.996 228.624C800.939 225.363 803.528 222.826 805.762 221.012C807.996 219.204 809.919 218.295 811.525 218.295C812.77 218.295 813.4 218.838 813.4 219.926C813.4 220.652 813.22 221.422 812.862 222.237C812.503 223.051 812.147 223.826 811.792 224.547C810.36 227.267 808.262 230.847 805.494 235.286C802.726 239.728 799.507 244.662 795.849 250.101C792.188 255.54 788.214 261.384 783.927 267.634C779.64 273.884 775.263 280.187 770.8 286.53C766.332 292.877 761.825 299.216 757.27 305.554C752.715 311.902 748.386 317.924 744.275 323.635C740.17 329.345 736.373 334.558 732.89 339.267C729.404 343.981 726.505 347.965 724.182 351.224H758.474C760.258 348.691 762.447 345.476 765.04 341.578C767.625 337.68 770.485 333.334 773.612 328.527C776.735 323.728 780.042 318.565 783.524 313.033C787.011 307.509 790.532 301.931 794.111 296.314V296.585L795.719 294.684C798.216 291.787 801.251 288.296 804.825 284.219C808.4 280.142 812.192 275.882 816.213 271.44C820.229 267.002 824.474 262.515 828.937 257.984C833.4 253.457 837.78 249.193 842.069 245.205C844.385 243.033 847.513 240.451 851.446 237.46C855.371 234.469 859.484 231.526 863.769 228.625C868.056 225.729 872.252 223.283 876.361 221.287C880.47 219.295 883.952 218.296 886.812 218.296C887.88 218.296 888.419 218.75 888.419 219.655C888.419 220.381 888.24 221.287 887.88 222.373C887.521 223.461 887.166 224.369 886.812 225.093C885.204 228.175 882.879 232.07 879.843 236.781C876.808 241.495 873.369 246.705 869.528 252.412C865.688 258.118 861.579 264.149 857.206 270.488C852.827 276.835 848.498 283.085 844.211 289.246C834.031 303.747 825.188 316.206 817.685 326.623C810.187 337.047 804.112 345.246 799.468 351.225H834.031C835.639 348.873 837.733 345.748 840.326 341.846C842.915 337.955 845.727 333.651 848.766 328.937C851.802 324.223 855.061 319.149 858.547 313.714C862.029 308.278 865.462 302.75 868.862 297.133L871.003 294.409C873.5 291.515 876.496 288.119 879.978 284.22C883.461 280.321 887.254 276.155 891.365 271.713C895.47 267.275 899.758 262.787 904.225 258.256C908.685 253.729 913.064 249.38 917.352 245.205C920.033 242.855 923.288 240.137 927.133 237.053C930.97 233.973 934.99 231.031 939.187 228.218C943.383 225.411 947.579 223.052 951.78 221.149C955.977 219.246 959.773 218.296 963.167 218.296C965.129 218.296 966.115 219.022 966.115 220.47C966.115 222.102 965.444 224.14 964.113 226.586C962.777 229.034 960.998 231.888 958.776 235.15C956.549 238.413 953.969 241.991 951.033 245.886C948.098 249.784 944.939 253.818 941.56 257.984C939.067 261.247 936.486 264.554 933.818 267.906C931.145 271.262 928.569 274.752 926.08 278.375C922.342 283.449 918.697 288.524 915.139 293.599C911.581 298.674 908.418 303.655 905.661 308.546C902.901 313.442 900.679 318.063 898.988 322.411C897.297 326.76 896.456 330.659 896.456 334.1C896.456 339.357 898.398 343.523 902.283 346.603C906.168 349.692 912.889 351.224 922.442 351.224C926.013 351.224 929.853 350.316 933.962 348.508C938.071 346.7 942.27 344.293 946.554 341.302C950.842 338.315 955.171 334.781 959.55 330.703C963.926 326.622 968.166 322.41 972.279 318.061C976.563 313.352 980.939 308.233 985.406 302.7C989.865 297.177 994.154 291.786 998.266 286.529L998.228 286.484L1025.59 250.643C1032.73 241.222 1039.03 233.475 1044.48 227.401C1049.92 221.331 1053.99 218.294 1056.67 218.294C1057.92 218.294 1058.54 218.748 1058.54 219.653C1058.54 221.828 1055.33 228.398 1048.9 239.361C1042.47 250.326 1033.85 264.37 1023.04 281.494C1012.24 298.622 999.733 318.109 985.534 339.943C971.333 361.78 956.468 384.66 940.927 408.584L896.185 477.903H929.943C930.657 476.452 931.55 474.818 932.623 473.011C933.692 471.198 934.677 469.566 935.571 468.118C953.432 436.217 968.886 409.536 981.921 388.059C994.956 366.581 1005.85 348.777 1014.6 334.644L1025.06 317.788C1025.59 316.884 1026.57 315.385 1028 313.302C1029.43 311.218 1030.59 309.727 1031.49 308.82V308.544C1033.27 306.554 1035.14 304.288 1037.11 301.751C1039.08 299.214 1041.31 296.405 1043.81 293.321C1046.49 289.883 1049.44 286.212 1052.65 282.312C1055.87 278.417 1059.12 274.563 1062.43 270.761C1065.73 266.951 1069.08 263.239 1072.48 259.615C1075.87 255.991 1079.18 252.725 1082.39 249.827C1085.07 247.473 1088.33 244.757 1092.17 241.671C1096.01 238.592 1100.03 235.648 1104.23 232.837C1108.42 230.028 1112.62 227.671 1116.82 225.769C1121.01 223.866 1124.81 222.915 1128.21 222.915C1130.17 222.915 1131.15 223.729 1131.15 225.361C1131.15 226.992 1130.48 229.078 1129.14 231.613C1127.8 234.152 1125.97 237.05 1123.65 240.312C1121.33 243.573 1118.65 247.156 1115.61 251.046C1112.58 254.945 1109.36 258.983 1105.97 263.149L1090.96 282.45C1087.39 287.163 1083.95 291.829 1080.65 296.449C1077.34 301.069 1074.44 305.552 1071.94 309.905C1069.44 314.254 1067.43 318.425 1065.91 322.408C1064.39 326.396 1063.64 330.02 1063.64 333.282C1063.64 338.721 1065.53 343.164 1069.33 346.6C1073.13 350.045 1079.98 351.768 1089.89 351.768C1093.82 351.768 1097.88 350.815 1102.09 348.911C1106.28 347.011 1110.57 344.429 1114.95 341.166C1119.32 337.903 1123.69 334.19 1128.07 330.02C1132.45 325.853 1136.69 321.504 1140.8 316.973C1145.44 311.72 1149.91 306.418 1154.2 301.069C1157.65 296.769 1160.73 292.802 1163.49 289.144L1163.57 289.243C1164.28 288.339 1165.22 287.163 1166.38 285.708C1167.54 284.262 1168.48 283.082 1169.2 282.175V282.45L1171.88 278.915L1177.23 272.118C1181.52 266.683 1185.76 261.338 1189.96 256.081C1194.15 250.824 1198.4 245.843 1202.69 241.128C1200.54 244.57 1198.62 247.513 1196.93 249.961C1195.23 252.409 1193.67 254.72 1192.24 256.896C1190.81 259.073 1189.33 261.293 1187.82 263.555C1186.3 265.825 1184.47 268.585 1182.33 271.847C1174.29 284.173 1166.2 296.405 1158.08 308.543C1149.95 320.687 1141.78 332.379 1133.56 343.61L1127.4 351.221H1162.23C1168.48 342.344 1174.82 332.561 1181.25 321.865C1187.68 311.174 1193.85 300.117 1199.74 288.7V288.971C1202.42 286.073 1205.32 282.855 1208.45 279.321C1211.57 275.786 1214.92 272.118 1218.49 268.313C1222.06 264.506 1225.77 260.612 1229.61 256.624C1233.45 252.636 1237.42 248.834 1241.54 245.202C1244.21 242.852 1247.47 240.134 1251.31 237.05C1255.16 233.97 1259.17 231.028 1263.37 228.215C1267.57 225.408 1271.76 223.049 1275.97 221.146C1280.16 219.243 1283.95 218.293 1287.35 218.293C1289.14 218.293 1290.03 219.019 1290.03 220.467C1290.03 221.92 1289.18 224.137 1287.49 227.128C1285.79 230.117 1283.64 233.516 1281.05 237.321C1278.46 241.128 1275.56 245.162 1272.35 249.418C1269.13 253.682 1266.01 257.71 1262.97 261.517L1252.52 274.839C1248.41 280.095 1244.44 285.397 1240.6 290.738C1236.76 296.084 1233.36 301.296 1230.42 306.37C1227.47 311.445 1225.06 316.341 1223.19 321.051C1221.31 325.765 1220.37 330.114 1220.37 334.098C1220.37 339.355 1222.34 343.521 1226.26 346.601C1230.19 349.69 1236.89 351.222 1246.36 351.222C1253.5 351.222 1261.23 348.279 1269.54 342.39C1277.84 336.501 1286.01 329.205 1294.05 320.508C1298.51 315.798 1303.2 310.407 1308.12 304.332C1313.03 298.261 1317.8 292.327 1322.45 286.527L1318.96 282.45C1314.32 288.428 1309.49 294.503 1304.5 300.664C1299.49 306.825 1294.76 312.264 1290.3 316.974C1282.61 325.128 1275.03 331.921 1267.52 337.361C1260.02 342.799 1253.41 345.515 1247.7 345.515C1245.55 345.515 1244.48 344.611 1244.48 342.799C1244.48 340.987 1245.25 338.495 1246.77 335.321C1248.29 332.151 1250.22 328.524 1252.55 324.447C1254.89 320.37 1257.53 315.976 1260.49 311.262C1263.45 306.552 1266.54 301.749 1269.78 296.854L1276.24 286.794C1279.83 281.18 1283.28 275.607 1286.6 270.079C1289.92 264.551 1292.88 259.205 1295.48 254.037C1298.08 248.874 1300.19 244.075 1301.81 239.631C1303.42 235.193 1304.23 231.162 1304.23 227.535C1304.23 222.824 1302.75 219.202 1299.79 216.66C1296.83 214.125 1293.29 212.854 1289.16 212.854C1284.85 212.854 1280.37 213.807 1275.7 215.709C1271.04 217.612 1266.47 220.016 1261.97 222.913C1257.49 225.813 1253.23 228.851 1249.19 232.018C1245.16 235.191 1241.62 238.136 1238.59 240.853C1233.59 245.2 1228.76 249.78 1224.12 254.579C1219.47 259.386 1215.1 264.056 1210.99 268.583L1226 243.571C1229.39 237.958 1232.46 232.835 1235.24 228.213C1238.01 223.592 1240.73 219.201 1243.41 215.028L1242.88 215.299C1249.84 211.132 1257.52 206.783 1265.92 202.252C1274.31 197.723 1282.97 193.103 1291.9 188.387L1333.43 165.552C1337.54 163.199 1342.41 160.251 1348.03 156.717C1353.66 153.182 1359.06 149.241 1364.24 144.892C1369.42 140.543 1373.84 135.921 1377.51 131.029C1381.17 126.135 1383 121.065 1383 115.806C1383 112.002 1382.1 108.968 1380.32 106.701ZM1372.78 129.671C1369.11 134.386 1364.74 138.824 1359.65 142.991C1354.56 147.161 1349.38 150.831 1344.11 154.001C1338.84 157.174 1334.6 159.667 1331.38 161.477C1326.56 164.195 1321.42 166.961 1315.98 169.768C1310.53 172.581 1305.13 175.523 1299.77 178.603C1290.66 183.497 1281.86 188.3 1273.38 193.011C1264.89 197.725 1256.9 202.163 1249.4 206.331C1254.22 198.72 1259.58 190.93 1265.48 182.951C1271.37 174.979 1277.49 167.232 1283.83 159.709C1290.17 152.191 1296.73 145.029 1303.52 138.234C1310.31 131.437 1317.05 125.55 1323.75 120.563C1330.45 115.582 1337.01 111.592 1343.44 108.603C1349.87 105.612 1355.94 104.118 1361.66 104.118C1365.41 104.118 1369.11 105.026 1372.78 106.836C1376.44 108.649 1378.27 111.55 1378.27 115.536C1378.27 120.25 1376.44 124.961 1372.78 129.671ZM1106.51 445.797C1105.8 447.597 1104.87 449.035 1103.72 450.113C1102.57 451.191 1101.15 451.958 1099.47 452.408C1097.78 452.857 1095.74 453.08 1093.35 453.08H1059.45C1060.96 449.303 1063.18 445.979 1066.1 443.101C1069.02 440.224 1072.23 437.525 1075.74 435.003C1079.24 432.49 1082.83 430.019 1086.51 427.586C1090.18 425.163 1093.51 422.487 1096.47 419.562C1099.45 416.644 1101.88 413.336 1103.79 409.648C1105.69 405.96 1106.65 401.648 1106.65 396.699C1106.65 389.683 1104.67 384.338 1100.73 380.649C1096.78 376.964 1091.04 375.117 1083.51 375.117C1078.29 375.117 1073.45 375.992 1069.02 377.752C1064.59 379.502 1060.69 382.088 1057.32 385.505V409.515H1058.26C1060.47 399.533 1063.53 391.824 1067.43 386.38C1071.33 380.942 1076.15 378.222 1081.92 378.222C1085.81 378.222 1088.81 379.527 1090.89 382.133C1092.97 384.738 1094.02 388.472 1094.02 393.327C1094.02 398.186 1093.04 402.523 1091.09 406.342C1089.14 410.167 1086.7 413.763 1083.78 417.135C1080.85 420.507 1077.69 423.81 1074.27 427.048C1070.86 430.286 1067.67 433.724 1064.7 437.367C1061.73 441.011 1059.23 445.011 1057.19 449.372C1055.15 453.737 1054.04 458.747 1053.87 464.413H1106.11L1109.3 439.053H1108.37C1107.84 441.749 1107.22 444.003 1106.51 445.797ZM1148.92 375.118C1139.26 375.118 1132.08 378.964 1127.38 386.653C1122.68 394.341 1120.33 405.649 1120.33 420.576C1120.33 435.504 1122.68 446.807 1127.38 454.5C1132.08 462.185 1139.26 466.031 1148.92 466.031C1158.57 466.031 1165.75 462.184 1170.45 454.5C1175.15 446.808 1177.5 435.504 1177.5 420.576C1177.5 405.649 1175.15 394.341 1170.45 386.653C1165.76 378.963 1158.57 375.118 1148.92 375.118ZM1161.01 452.473C1158.09 459.534 1154.06 463.064 1148.92 463.064C1143.78 463.064 1139.72 459.558 1136.75 452.542C1133.78 445.526 1132.3 434.876 1132.3 420.576C1132.3 406.277 1133.79 395.622 1136.75 388.606C1139.72 381.594 1143.78 378.085 1148.92 378.085C1154.06 378.085 1158.09 381.619 1161.01 388.675C1163.94 395.736 1165.4 406.366 1165.4 420.576C1165.4 434.786 1163.94 445.417 1161.01 452.473ZM1241.17 445.797C1240.46 447.597 1239.53 449.035 1238.38 450.113C1237.23 451.191 1235.81 451.958 1234.13 452.408C1232.45 452.857 1230.41 453.08 1228.01 453.08H1194.11C1195.62 449.303 1197.84 445.979 1200.76 443.101C1203.69 440.224 1206.9 437.525 1210.4 435.003C1213.9 432.49 1217.49 430.019 1221.17 427.586C1224.84 425.163 1228.17 422.487 1231.14 419.562C1234.1 416.644 1236.54 413.336 1238.45 409.648C1240.36 405.96 1241.31 401.648 1241.31 396.699C1241.31 389.683 1239.33 384.338 1235.39 380.649C1231.45 376.964 1225.71 375.117 1218.18 375.117C1212.95 375.117 1208.12 375.992 1203.68 377.752C1199.25 379.502 1195.35 382.088 1191.99 385.505V409.515H1192.91C1195.13 399.533 1198.19 391.824 1202.09 386.38C1205.99 380.942 1210.82 378.222 1216.58 378.222C1220.48 378.222 1223.47 379.527 1225.55 382.133C1227.63 384.738 1228.68 388.472 1228.68 393.327C1228.68 398.186 1227.7 402.523 1225.75 406.342C1223.8 410.167 1221.37 413.763 1218.44 417.135C1215.51 420.507 1212.35 423.81 1208.93 427.048C1205.52 430.286 1202.33 433.724 1199.36 437.367C1196.39 441.011 1193.89 445.011 1191.85 449.372C1189.82 453.737 1188.71 458.747 1188.53 464.413H1240.77L1243.96 439.053H1243.03C1242.5 441.749 1241.88 444.003 1241.17 445.797ZM1308.17 426.379C1306.31 431.908 1305.24 434.469 1299.26 435.686V379.576H1295.28L1246.62 439.999H1281.32V458.614C1281.32 460.636 1277.06 463.336 1276 463.336V464.414H1304.85V463.336C1303.65 463.336 1299.27 460.637 1299.27 458.614V440.809C1305.24 442.024 1306.31 444.586 1308.17 450.114C1308.57 450.925 1310.16 450.788 1310.16 450.114V426.38C1310.16 425.704 1308.57 425.569 1308.17 426.379ZM1281.32 436.493H1253.4L1281.32 401.827V436.493Z" fill="#F4E590"/>
</svg>
